<?xml version="1.0" encoding="utf-8"?>
<!-- Generator: Adobe Illustrator 22.0.0, SVG Export Plug-In . SVG Version: 6.00 Build 0)  -->
<svg version="1.1" id="图层_1" xmlns="http://www.w3.org/2000/svg" xmlns:xlink="http://www.w3.org/1999/xlink" x="0px" y="0px"
	 viewBox="0 0 256 256" style="enable-background:new 0 0 256 256;" xml:space="preserve">
<g>
	<circle cx="65" cy="108" r="5"/>
	<path d="M205.5,75H50.3c-9.8,0-17.2,8.7-15.1,17.9l14.9,67.3c1.5,6.9,7.8,11.8,15.1,11.8h126.3c7.4,0,13.7-5,15.1-11.9l14-67.3
		C222.6,83.6,215.3,75,205.5,75z M65,118c-5.5,0-10-4.5-10-10c0-5.5,4.5-10,10-10s10,4.5,10,10C75,113.5,70.5,118,65,118z M87,149
		c-5.5,0-10-4.5-10-10c0-5.5,4.5-10,10-10s10,4.5,10,10C97,144.5,92.5,149,87,149z M107.7,118c-5.5,0-10-4.5-10-10
		c0-5.5,4.5-10,10-10c5.5,0,10,4.5,10,10C117.7,113.5,113.2,118,107.7,118z M130.5,149c-5.5,0-10-4.5-10-10c0-5.5,4.5-10,10-10
		s10,4.5,10,10C140.5,144.5,136,149,130.5,149z M150.3,118c-5.5,0-10-4.5-10-10c0-5.5,4.5-10,10-10c5.5,0,10,4.5,10,10
		C160.3,113.5,155.9,118,150.3,118z M174,149c-5.5,0-10-4.5-10-10c0-5.5,4.5-10,10-10s10,4.5,10,10C184,144.5,179.5,149,174,149z
		 M193,118c-5.5,0-10-4.5-10-10c0-5.5,4.5-10,10-10s10,4.5,10,10C203,113.5,198.5,118,193,118z"/>
	<circle cx="108" cy="108" r="5"/>
	<circle cx="150" cy="108" r="5"/>
	<circle cx="193" cy="108" r="5"/>
	<circle cx="87" cy="139" r="5"/>
	<circle cx="130" cy="139" r="5"/>
	<circle cx="174" cy="139" r="5"/>
</g>
</svg>
