<?xml version="1.0" encoding="utf-8"?>
<!-- Generator: Adobe Illustrator 22.0.0, SVG Export Plug-In . SVG Version: 6.00 Build 0)  -->
<svg version="1.1" id="图层_1" xmlns="http://www.w3.org/2000/svg" xmlns:xlink="http://www.w3.org/1999/xlink" x="0px" y="0px"
	 viewBox="0 0 256 256" style="enable-background:new 0 0 256 256;" xml:space="preserve">
<style type="text/css">
	.st0{fill:none;stroke:#000000;stroke-width:6;stroke-miterlimit:10;}
	.st1{stroke:#000000;stroke-width:6;stroke-miterlimit:10;}
</style>
<path class="st0" d="M106.3,183h-21c-2.8,0-5-2.2-5-5V69c0-2.8,2.2-5,5-5h21c2.8,0,5,2.2,5,5v109C111.3,180.8,109.1,183,106.3,183z"
	/>
<path class="st0" d="M141,183h-21c-2.8,0-5-2.2-5-5V69c0-2.8,2.2-5,5-5h21c2.8,0,5,2.2,5,5v109C146,180.8,143.8,183,141,183z"/>
<path class="st0" d="M175,182h-21c-2.8,0-5-2.2-5-5V68c0-2.8,2.2-5,5-5h21c2.8,0,5,2.2,5,5v109C180,179.8,177.8,182,175,182z"/>
<path class="st0" d="M209,182h-21c-2.8,0-5-2.2-5-5V68c0-2.8,2.2-5,5-5h21c2.8,0,5,2.2,5,5v109C214,179.8,211.8,182,209,182z"/>
<path class="st1" d="M70,64H49c-2.8,0-5,2.2-5,5v109c0,2.8,2.2,5,5,5h21c2.8,0,5-2.2,5-5V69C75,66.2,72.8,64,70,64z M61,87
	c-2.8,0-5-2.2-5-5s2.2-5,5-5s5,2.2,5,5S63.8,87,61,87z"/>
<circle cx="95.8" cy="82" r="5"/>
<circle cx="130.5" cy="82" r="5"/>
<circle cx="165.3" cy="82" r="5"/>
<circle cx="200" cy="82" r="5"/>
</svg>
